<svg xmlns="http://www.w3.org/2000/svg" viewBox="0 0 59.6643 59.6643"><svg x="5.9664" y="8.0539" width="47.7315" height="43.5566" viewBox="15.7790 0.0000 47.7315 43.5566" overflow="hidden">
  
  
  <g>
    <g
       transform="matrix(1.9019462,0,0,1.9019462,-78.07047,-74.836899)">
      <g>
        <path
           d="m 56.706912,42.292367 c 0.03104,-0.031 0.06209,-0.0617 0.09313,-0.0928 1.229784,0.77258 2.281767,1.72014 2.862797,2.83951 -0.88371,-0.82127 -1.919822,-1.784 -2.95593,-2.74673 m 8.42681,-0.0335 c -1.27389,1.07279 -2.47615,2.21191 -3.38138,3.63078 0.63923,-1.66581 1.86972,-2.78024 3.38138,-3.63078 m -3.69959,8.53651 c -0.0328,-1.48484 0.0815,-2.92488 0.37536,-4.34199 1.33809,-0.2413 2.28953,-0.617 3.27978,-1.29222 1.7406,-1.1871 2.46909,-2.95628 2.82292,-4.93571 0.0395,-0.22049 -0.0631,-0.31645 -0.30832,-0.30657 -1.06963,0.043 -2.1135,0.22402 -3.0921,0.67381 -1.88525,0.86712 -2.8829,2.42958 -3.32952,4.38291 -0.15663,0.68509 -0.20073,1.39594 -0.29598,2.09514 -0.0614,-0.10301 -0.0952,-0.21378 -0.12559,-0.32561 -0.2159,-0.79375 -0.52987,-1.55081 -0.58667,-2.39854 -0.0674,-1.00718 -0.5722,-1.8863 -1.17933,-2.67334 -1.137362,-1.47426 -2.758023,-2.05141 -4.523323,-2.31987 -0.217664,-0.0332 -0.31503,0.079 -0.318205,0.30515 -0.0099,0.7052 0.09701,1.3963 0.273403,2.07645 0.373591,1.44216 1.088672,2.65677 2.366786,3.48474 0.910519,0.58914 1.920529,0.89217 2.991559,0.99589 0.16827,0.0159 0.22825,0.0748 0.27693,0.22084 0.34572,1.03117 0.47343,2.09797 0.51929,3.17712 0.0145,0.33796 0.007,0.67804 0.005,1.0227 l 0.53023,0.0864 z"
           style="fill:#87ae73;fill-opacity:1;fill-rule:nonzero;stroke:none;stroke-width:0.352778" />
        <path
           d="m 70.687499,49.631487 c -0.87383,1.28023 -1.7967,2.51742 -3.04165,3.47133 -0.53411,0.40923 -1.15076,0.60431 -1.81046,0.68616 0.0942,-0.22296 0.22084,-0.42228 0.25718,-0.63712 0.0388,-0.22895 -0.0113,-0.47202 -0.0145,-0.70944 -0.001,-0.0649 0.005,-0.15416 0.0455,-0.19191 1.07562,-1.00259 2.15018,-2.0066 3.24133,-2.99226 0.20073,-0.18133 0.46143,-0.30938 0.71402,-0.41557 0.24024,-0.10125 0.48613,-0.002 0.62441,0.18627 0.14994,0.20461 0.12136,0.40146 -0.0159,0.60254 m 2.27894,-0.96449 c -0.49777,0.0977 -0.90134,0.36653 -1.29116,0.66675 -0.0501,0.0385 -0.1016,0.0751 -0.17816,0.13193 0,-0.0825 0.002,-0.12664 -3.5e-4,-0.17074 -0.0335,-0.75424 -0.66569,-1.27176 -1.41287,-1.17087 -0.47096,0.0635 -0.84843,0.30798 -1.18922,0.60784 -0.5715,0.50341 -1.1243,1.0287 -1.68627,1.54305 -0.53834,0.49247 -1.07845,0.98284 -1.55928,1.42063 -0.37324,-0.0949 -0.68686,-0.22189 -1.00824,-0.24624 -0.72849,-0.0557 -1.4605,-0.0638 -2.1911,-0.0843 -0.32985,-0.009 -3.67383,-0.43498 -4.493687,-0.46426 -1.283052,-0.0462 -2.508602,0.18486 -3.575755,0.95744 -0.37218,0.26953 -0.735189,0.55598 -1.072797,0.86678 -1.277056,1.17475 -2.542117,2.36255 -3.810705,3.54612 -0.162631,0.15169 -0.183092,0.32808 -0.06209,0.48225 0.131939,0.16863 0.315736,0.2032 0.494241,0.0642 0.267759,-0.20778 0.535164,-0.41945 0.780697,-0.65264 0.9525,-0.90346 1.888773,-1.82421 2.846211,-2.72273 0.593373,-0.55704 1.20262,-1.09891 1.969559,-1.42205 1.217788,-0.51365 2.482144,-0.49954 3.757436,-0.33126 0.73907,0.0974 1.47108,0.25471 2.21192,0.32597 0.71931,0.0695 1.44603,0.0568 2.16887,0.0935 0.42757,0.0215 0.85725,0.0452 1.27882,0.11289 0.25189,0.0406 0.45368,0.2025 0.4953,0.49177 0.0427,0.2981 -0.0589,0.53834 -0.30338,0.70662 -0.14147,0.097 -0.29775,0.17603 -0.45474,0.24624 -0.53622,0.24024 -1.1116,0.23354 -1.6831,0.27446 -1.00612,0.0723 -2.01224,0.16122 -3.01413,0.27693 -0.34643,0.0402 -0.68439,0.1718 -1.01988,0.28151 -0.18733,0.061 -0.27587,0.22014 -0.22084,0.41452 0.0547,0.19262 0.20426,0.27234 0.40428,0.23883 0.0811,-0.0138 0.16158,-0.0353 0.2406,-0.0596 0.7747,-0.24201 1.57374,-0.34925 2.37913,-0.38841 0.89641,-0.043 1.7967,-0.018 2.69099,-0.0829 0.78564,-0.0571 1.5815,-0.13123 2.34385,-0.3175 0.95427,-0.23319 1.67958,-0.88653 2.37102,-1.55963 0.96732,-0.94227 1.92652,-1.89336 2.91501,-2.81305 0.25682,-0.23883 0.5969,-0.40217 0.92251,-0.54716 0.21096,-0.0942 0.47202,-0.0857 0.64699,0.12277 0.17816,0.21272 0.14076,0.45437 0.0148,0.67627 -0.14817,0.26176 -0.29351,0.53023 -0.47907,0.76518 -1.01918,1.28905 -2.04258,2.57527 -3.08081,3.84951 -0.52564,0.64488 -1.11231,1.23613 -1.82809,1.67499 -1.52506,0.93556 -3.2258,1.3088 -4.97523,1.48343 -0.92145,0.0917 -1.85279,0.0815 -2.77742,0.14922 -1.143,0.0836 -2.216854,0.38982 -3.179584,1.04528 -1.05022,0.71508 -1.928283,1.61749 -2.809522,2.51848 -0.134056,0.13723 -0.125589,0.33549 -0.0021,0.47061 0.129117,0.14181 0.310092,0.1651 0.468489,0.0512 0.06632,-0.048 0.121003,-0.11289 0.180622,-0.17074 0.519642,-0.50412 1.024114,-1.02588 1.562806,-1.50883 0.80398,-0.72108 1.6764,-1.35643 2.773189,-1.52859 0.8315,-0.13053 1.67534,-0.21378 2.51601,-0.2413 1.35467,-0.0448 2.68782,-0.20038 3.99627,-0.55562 1.6009,-0.43427 3.04412,-1.14583 4.16101,-2.41195 1.24284,-1.40899 2.45604,-2.84339 3.54189,-4.37832 0.25823,-0.36477 0.50659,-0.76059 0.64735,-1.17969 0.31432,-0.93662 -0.45015,-1.73919 -1.42029,-1.54869"
           style="fill:#594b5b;fill-opacity:1;fill-rule:nonzero;stroke:none;stroke-width:0.352778" />
      </g>
      <path
         style="fill:#594b5b;fill-opacity:1;fill-rule:nonzero;stroke:none;stroke-width:0.352778"
         d="m 41.05176,74.980437 1.083138,0.004 c 0.0186,0 0.03307,0.004 0.04134,0.0124 0.0083,0.006 0.0124,0.0165 0.0124,0.0331 0,0.0362 -0.01447,0.062 -0.04134,0.0785 -0.132292,0.008 -0.214974,0.0248 -0.248047,0.0496 -0.03101,0.0227 -0.04547,0.0527 -0.04547,0.0909 0,0.0196 0.001,0.0372 0.0041,0.0538 0.0052,0.0227 0.03307,0.0889 0.08268,0.19844 0.06305,0.14882 0.1757,0.39067 0.338998,0.72347 l 0.338997,0.68212 c 0.190169,-0.33279 0.344165,-0.64492 0.463021,-0.93431 l -0.169499,-0.45061 c -0.01964,-0.0413 -0.04444,-0.10336 -0.07441,-0.18604 -0.02791,-0.0827 -0.04961,-0.13022 -0.06615,-0.14469 -0.01654,-0.0134 -0.07441,-0.0341 -0.173633,-0.062 -0.09922,-0.03 -0.159163,-0.0517 -0.177767,-0.0661 l -0.0041,-0.0207 c 0,-0.0103 0.0052,-0.0258 0.01654,-0.0455 0.04651,-0.0134 0.08268,-0.0207 0.107487,-0.0207 l 0.16123,0.004 h 0.3514 l 0.107487,-0.004 0.347266,0.008 c 0.02687,0 0.05064,-0.001 0.07028,-0.004 h 0.04961 c 0.01033,0 0.02584,0.002 0.04547,0.004 l -0.0041,0.0909 c -0.02791,0.0165 -0.07441,0.0279 -0.14056,0.0331 -0.124023,0.0145 -0.219108,0.0393 -0.285254,0.0744 -0.01964,0.0227 -0.02894,0.0413 -0.02894,0.0579 0,0.0413 0.01033,0.093 0.03307,0.15296 0.0052,0.0196 0.0248,0.0786 0.05788,0.17777 l 0.30179,0.79375 c 0.08785,0.23771 0.15503,0.40307 0.202572,0.49609 0.07958,-0.14263 0.191203,-0.40308 0.334863,-0.78135 0.04961,-0.12919 0.116789,-0.28629 0.202572,-0.47129 0.05478,-0.11265 0.08268,-0.21084 0.08268,-0.29352 0,-0.0434 -0.01654,-0.0806 -0.04961,-0.11162 -0.03101,-0.03 -0.10542,-0.0579 -0.223242,-0.0827 -0.06925,-0.0165 -0.11989,-0.031 -0.152963,-0.0455 -0.01137,-0.0134 -0.01654,-0.0258 -0.01654,-0.0372 0,-0.0165 0.01033,-0.0341 0.03307,-0.0538 h 0.04134 l 0.227376,-0.004 c 0.01034,0 0.05478,0.002 0.132292,0.004 0.07648,0.003 0.150895,0.004 0.223242,0.004 0.05788,0 0.121956,-10e-4 0.194303,-0.004 h 0.144695 c 0.01034,0.003 0.01757,0.007 0.02067,0.0124 0.0052,0.006 0.0083,0.0155 0.0083,0.0289 0,0.0227 -0.0031,0.0444 -0.0083,0.0662 -0.09095,0.0114 -0.164331,0.0331 -0.219108,0.0661 -0.05271,0.031 -0.12299,0.11576 -0.21084,0.25632 l -0.508495,1.21129 c -0.04754,0.11369 -0.128158,0.28733 -0.243913,0.5209 -0.0248,0.0476 -0.04444,0.0848 -0.05788,0.11576 -0.01137,0.03 -0.02274,0.0496 -0.03307,0.0579 -0.01137,0.0103 -0.02687,0.0165 -0.04548,0.0165 -0.01447,0 -0.03204,-0.004 -0.05374,-0.0124 -0.05271,-0.10232 -0.168465,-0.38551 -0.347266,-0.85163 -0.04961,-0.12609 -0.09508,-0.23357 -0.136425,-0.32246 -0.309025,0.63976 -0.511597,1.03353 -0.607715,1.18236 -0.02481,0.002 -0.04444,0.004 -0.05788,0.004 -0.01447,0 -0.03307,-0.002 -0.05788,-0.004 l -0.533301,-1.11621 -0.487826,-0.95498 c -0.03307,-0.0579 -0.05994,-0.093 -0.07855,-0.10749 -0.03307,-0.0186 -0.08992,-0.0351 -0.169498,-0.0496 -0.04444,-0.008 -0.07855,-0.0134 -0.103353,-0.0165 -0.0021,-0.0269 -0.0041,-0.0496 -0.0041,-0.0661 0,-0.008 0.0021,-0.0217 0.0041,-0.0413 z m 4.311881,-1.24437 c 0,-0.0599 0.02274,-0.11266 0.07028,-0.1571 0.04961,-0.0465 0.107487,-0.0703 0.173633,-0.0703 0.07131,0 0.133325,0.0269 0.186035,0.0786 0.05168,0.0496 0.07855,0.10335 0.07855,0.16123 0,0.0579 -0.02687,0.11369 -0.07855,0.16537 -0.05271,0.0496 -0.114722,0.0744 -0.186035,0.0744 -0.06925,0 -0.127124,-0.0227 -0.173633,-0.0703 -0.04754,-0.0465 -0.07028,-0.10749 -0.07028,-0.1819 z m -0.235645,1.46348 v -0.0827 c 0.124024,-0.0351 0.19017,-0.0558 0.198438,-0.062 0.06821,-0.03 0.14056,-0.0754 0.214974,-0.13642 0.07441,-0.0631 0.136426,-0.13333 0.186035,-0.21084 0.0217,-0.002 0.03927,-0.004 0.05374,-0.004 h 0.03307 c 0.0083,0.0909 0.0124,0.1571 0.0124,0.19844 0,0.008 -0.0021,0.0517 -0.0041,0.12816 v 0.95911 l -0.0083,0.86403 c -0.0031,0.0693 0.0083,0.11782 0.03307,0.1447 0.0248,0.0279 0.09715,0.0579 0.219108,0.091 0.07442,0.0227 0.130225,0.0403 0.169499,0.0537 0.0052,0.0145 0.0083,0.0248 0.0083,0.0331 0,0.0114 -0.0062,0.0248 -0.01654,0.0413 -0.07235,0 -0.165364,-0.004 -0.281119,-0.0124 -0.15503,-0.0134 -0.258382,-0.0207 -0.310059,-0.0207 -0.0248,0 -0.1757,0.006 -0.450618,0.0165 -0.05788,0 -0.113688,0.004 -0.165365,0.0124 -0.0083,0 -0.02377,-0.003 -0.04547,-0.008 -0.0083,-0.0134 -0.0124,-0.0248 -0.0124,-0.0331 0,-0.0269 0.01757,-0.0475 0.05374,-0.062 0.0083,-0.005 0.104386,-0.0269 0.289388,-0.0661 0.05788,-0.0103 0.09612,-0.03 0.115755,-0.0579 0.03307,-0.0382 0.04961,-0.10025 0.04961,-0.18603 0.0021,-0.14573 0.0041,-0.5426 0.0041,-1.19063 0,-0.12919 -0.0062,-0.21084 -0.01653,-0.24391 -0.0083,-0.0217 -0.03307,-0.0465 -0.07441,-0.0744 -0.04134,-0.03 -0.127124,-0.0599 -0.256315,-0.0909 z m 1.964738,-0.78135 h 0.08682 l 0.0124,0.26872 -0.0041,0.34726 c 0.03514,0.003 0.05788,0.004 0.06615,0.004 0.04961,0 0.142627,-0.004 0.28112,-0.0124 0.08785,-0.005 0.171565,-0.008 0.252181,-0.008 0.03824,0 0.09508,0.002 0.169498,0.004 0.0021,0.0362 0.0041,0.0651 0.0041,0.0868 0,0.0248 -0.0062,0.0641 -0.01653,0.11575 h -0.04547 l -0.438216,0.0165 -0.219108,0.004 -0.04961,0.008 c -0.01447,0.0475 -0.02067,0.10129 -0.02067,0.16123 l 0.0083,0.42581 -0.0083,0.74414 c 0,0.19637 0.02584,0.32557 0.07855,0.38861 0.04961,0.0662 0.121957,0.0992 0.219109,0.0992 0.04961,0 0.141593,-0.0145 0.276985,-0.0455 0.04134,-0.008 0.09612,-0.0393 0.165365,-0.0951 h 0.0248 c 0.01653,0 0.02997,0.006 0.04134,0.0165 0.01034,0.0114 0.01653,0.0248 0.01653,0.0413 l -0.0041,0.0207 c -0.08062,0.0889 -0.1726,0.15296 -0.276986,0.1943 -0.10542,0.0382 -0.243913,0.0579 -0.417546,0.0579 -0.121956,0 -0.222208,-0.0279 -0.30179,-0.0827 -0.08061,-0.0579 -0.131258,-0.12506 -0.152962,-0.20258 -0.02274,-0.0765 -0.03307,-0.24494 -0.03307,-0.50436 l 0.0083,-0.63252 v -0.41754 c 0,-0.0548 -0.0031,-0.10852 -0.0083,-0.16123 h -0.04548 l -0.231511,0.008 h -0.0248 c -0.01963,0 -0.03514,-0.004 -0.04547,-0.0124 -0.01137,-0.008 -0.01654,-0.0186 -0.01654,-0.0331 0,-0.0217 0.0062,-0.0393 0.02067,-0.0537 0.01344,-0.0165 0.05581,-0.0393 0.128157,-0.0703 0.04961,-0.0186 0.10542,-0.0579 0.169499,-0.11576 0.06615,-0.0579 0.121956,-0.12092 0.169499,-0.19017 0.0217,-0.0382 0.05374,-0.10955 0.09508,-0.21497 0.02997,-0.0765 0.05168,-0.13023 0.06615,-0.16123 z m 0.985987,2.72025 c 0.220141,-0.0414 0.347265,-0.0713 0.380338,-0.091 0.0217,-0.0134 0.03307,-0.0434 0.03307,-0.0909 l -0.0041,-0.18603 0.0041,-0.33073 -0.0083,-0.83923 0.0041,-0.31419 v -0.22324 l 0.0083,-0.27285 c 0,-0.42995 -0.0041,-0.68626 -0.0124,-0.76895 -0.0083,-0.0848 -0.0248,-0.13746 -0.04961,-0.15709 -0.04444,-0.0434 -0.168466,-0.0889 -0.372071,-0.13643 v -0.0124 c 0,-0.0134 10e-4,-0.0331 0.0041,-0.0579 0.02687,-0.002 0.05374,-0.006 0.07855,-0.0124 0.0248,-0.008 0.04754,-0.0124 0.07028,-0.0124 0.223242,-0.063 0.385506,-0.12505 0.487825,-0.18603 h 0.136426 c 0.0052,0.0527 0.0083,0.21911 0.0083,0.50023 l -0.0041,0.35553 0.0041,0.46302 -0.0124,0.57051 c 0,0.0331 0.001,0.0703 0.0041,0.11162 0.117822,-0.13436 0.204639,-0.22531 0.260449,-0.27285 0.09922,-0.0765 0.203605,-0.13849 0.314193,-0.18604 0.109554,-0.0465 0.225309,-0.0703 0.347266,-0.0703 0.23151,0 0.42168,0.0982 0.570508,0.29353 0.08268,0.11575 0.124023,0.27905 0.124023,0.48782 l -0.0083,0.28939 0.0041,0.16123 -0.0124,0.27699 c -0.0062,0.23151 -0.0083,0.37 -0.0083,0.41341 0,0.0496 0.001,0.11575 0.0041,0.19843 l 0.161231,0.0372 c 0.107487,0.0227 0.190169,0.0434 0.248047,0.062 l -0.0041,0.0868 -0.599447,-0.0165 c -0.03307,0 -0.12609,0.002 -0.276985,0.008 -0.09405,0.005 -0.147795,0.008 -0.161231,0.008 h -0.06201 c -0.0083,-0.0165 -0.0124,-0.03 -0.0124,-0.0413 v -0.0289 c 0.0248,-0.0331 0.07235,-0.0548 0.144694,-0.0661 l 0.169498,-0.0414 c 0.0217,-0.0165 0.03514,-0.0351 0.04134,-0.0579 0.0052,-0.0496 0.01343,-0.29146 0.0248,-0.72761 l 0.0041,-0.21084 c 0.0083,-0.21704 -0.0083,-0.39894 -0.04961,-0.5457 -0.02791,-0.0992 -0.08888,-0.17777 -0.181901,-0.23564 -0.09095,-0.0599 -0.198438,-0.091 -0.322461,-0.091 -0.10232,0 -0.197404,0.0227 -0.285254,0.0661 -0.06408,0.031 -0.139526,0.0858 -0.227377,0.16537 -0.08578,0.0806 -0.144693,0.14779 -0.177766,0.20257 -0.02274,0.0393 -0.03307,0.10128 -0.03307,0.18603 l 0.0041,0.19844 -0.0083,0.20671 c 0,0.0165 0.0021,0.13435 0.0083,0.35139 v 0.18191 l 0.0041,0.1943 c 0.0021,0.031 0.0052,0.0517 0.0083,0.062 l 0.396875,0.0992 c 0.0217,0.006 0.05374,0.0165 0.09508,0.0331 l 0.0083,0.0289 c 0,0.0114 -0.0062,0.0269 -0.01654,0.0455 -0.05271,0.003 -0.09405,0.004 -0.124026,0.004 l -0.219108,-0.004 -0.483691,0.008 -0.363803,0.008 c -0.01964,0 -0.04858,-0.002 -0.08682,-0.004 l -0.0041,-0.0207 c 0,-0.0134 0.0083,-0.031 0.0248,-0.0537 z m 0,0 m 6.832658,-3.81167 c -0.649056,0 -1.298112,0.28526 -1.645378,0.55398 -0.574642,0.46302 -0.992187,1.06246 -0.992187,2.00504 0,0.71107 0.243913,1.31878 0.661458,1.76527 0.487826,0.51676 1.194759,0.82682 2.005046,0.82682 0.595312,0 1.248502,-0.21911 1.690853,-0.5581 0.537434,-0.42995 0.971516,-1.08728 0.971516,-2.096 0,-1.23197 -0.988053,-2.49701 -2.691308,-2.49701 z m -0.186035,0.26872 c 0.338997,0 0.756543,0.18604 1.016992,0.41755 0.56224,0.51676 0.802018,1.43867 0.802018,2.05052 0,0.82269 -0.268717,1.48828 -0.595312,1.81074 -0.09922,0.0992 -0.359668,0.31833 -0.785482,0.31833 -1.124479,0 -1.847949,-1.28985 -1.847949,-2.47634 0,-0.91777 0.276985,-1.47174 0.537435,-1.72806 0.177767,-0.17776 0.525032,-0.39274 0.872298,-0.39274 z m 5.475635,1.71152 c -0.0786,0 -0.1571,0.062 -0.1571,0.10749 0,0.0372 0.0537,0.0868 0.16537,0.10749 0.26045,0.0455 0.23564,0.14056 0.2067,0.17777 -0.14056,0.16949 -0.61598,0.66559 -0.84749,0.85576 -0.0537,0.0455 -0.0951,0.0868 -0.12402,0.0868 -0.0372,0 -0.0538,-0.008 -0.062,-0.0455 -0.0289,-0.10335 -0.0248,-0.54984 -0.0248,-0.73587 0,-0.75241 0.0331,-2.6417 0.0703,-2.86495 0.008,-0.0331 -0.0455,-0.10335 -0.0703,-0.10335 -0.0372,0 -0.0827,0.0331 -0.16123,0.0703 -0.19017,0.10749 -0.66146,0.23978 -0.909505,0.29352 -0.07028,0.0165 -0.124023,0.0538 -0.124023,0.0786 0,0.0372 0.04961,0.11989 0.124023,0.16123 0.186035,0.10749 0.223245,0.16123 0.231515,0.21498 0.0248,0.21497 0.0455,0.71106 0.0455,1.70325 0,1.00873 -0.0455,2.22002 -0.0537,2.36885 -0.0207,0.2067 -0.09095,0.27698 -0.322464,0.34726 -0.09922,0.0289 -0.223242,0.0661 -0.223242,0.13643 0,0.062 0.05374,0.0992 0.214974,0.0992 0.09922,0 0.434082,-0.0289 0.702802,-0.0289 0.19017,0 0.53743,0.0248 0.73174,0.0248 0.0827,0 0.2067,-0.0165 0.2067,-0.11576 0,-0.0413 -0.0744,-0.0951 -0.16123,-0.11576 -0.21497,-0.0537 -0.24805,-0.14056 -0.26872,-0.28525 -0.0331,-0.16536 -0.0372,-0.88883 -0.008,-0.97152 0.008,-0.0331 0.008,-0.0703 0.0372,-0.0703 0.0331,0 0.0703,0.0537 0.14883,0.15297 0.35967,0.48782 0.5457,0.71106 0.74827,0.99632 0.0538,0.0744 0.0124,0.13642 -0.10335,0.17776 -0.12816,0.0372 -0.1695,0.0661 -0.1695,0.11576 0,0.0827 0.11576,0.10749 0.20257,0.10749 l 0.36794,-0.008 c 0.40101,-0.008 0.90951,0.0372 1.09554,0.0372 0.14883,0 0.23978,-0.0289 0.23978,-0.12403 0,-0.0289 -0.0703,-0.0827 -0.1943,-0.11989 -0.20671,-0.0579 -0.32246,-0.13229 -0.46716,-0.26458 -0.27285,-0.26872 -1.05833,-1.31051 -1.16582,-1.48001 0,0 0,-0.0372 0.008,-0.0537 0.0372,-0.0785 0.31419,-0.33899 0.46302,-0.43821 0.33073,-0.24805 0.5085,-0.33487 0.95498,-0.43408 0.0331,-0.008 0.16123,-0.091 0.16123,-0.18604 0,-0.0372 -0.0289,-0.0579 -0.0703,-0.0579 -0.2067,0 -0.65319,0.0827 -1.11621,0.0827 z m 1.91099,0.3018 c 0,0.0372 0.0496,0.0744 0.0951,0.12402 0.16123,0.13642 0.25218,0.21497 0.26045,0.27698 0.0165,0.0909 0.0165,0.52917 0.0165,0.69454 0,0.5457 -0.0165,1.0914 -0.0455,1.20302 -0.0165,0.0744 -0.10336,0.1695 -0.28526,0.22324 -0.14883,0.0455 -0.20257,0.0827 -0.20257,0.13643 0,0.0537 0.0951,0.0992 0.21498,0.0992 0.13229,0 0.50436,-0.0289 0.74827,-0.0289 0.1695,0 0.58704,0.0248 0.64079,0.0248 0.10748,0 0.21497,-0.0413 0.21497,-0.10336 0,-0.062 -0.0537,-0.10748 -0.1695,-0.14469 -0.19843,-0.062 -0.29352,-0.091 -0.29765,-0.32246 -0.008,-0.27285 -0.0165,-0.54157 -0.0165,-0.78135 0,-0.44648 0.0207,-1.48001 0.0372,-1.74046 0,-0.0248 -0.0372,-0.0868 -0.0785,-0.0868 -0.11989,0.0331 -0.60771,0.21498 -0.92191,0.27699 -0.12402,0.0248 -0.21084,0.0868 -0.21084,0.14883 z m 0.81856,-2.02159 c -0.1447,0 -0.29352,0.0537 -0.38447,0.14056 -0.0868,0.0909 -0.12403,0.24392 -0.12403,0.339 0,0.15296 0.0703,0.26045 0.1447,0.339 0.0868,0.0827 0.23977,0.13229 0.31005,0.13229 0.19431,0 0.46303,-0.21911 0.46303,-0.47129 0,-0.17777 -0.14056,-0.47956 -0.40928,-0.47956 z m 2.81326,1.61231 c -0.2067,0 -0.43821,0.0537 -0.62838,0.14469 -0.64079,0.29352 -0.97979,0.90951 -0.97979,1.52962 0,0.87644 0.53744,1.5503 1.42627,1.5503 0.63252,0 0.99219,-0.30179 1.23197,-0.67386 0.0372,-0.062 0.062,-0.1447 0.062,-0.19017 0,-0.0496 -0.0372,-0.10336 -0.0703,-0.10336 -0.0289,0 -0.0703,0.0496 -0.0992,0.0951 -0.14469,0.19017 -0.37207,0.26872 -0.69453,0.26872 -0.339,0 -0.66146,-0.14056 -0.85576,-0.38448 -0.1447,-0.1943 -0.23978,-0.54983 -0.23978,-0.71933 0,-0.0909 0.008,-0.21498 0.0331,-0.27699 0.008,-0.0289 0.0455,-0.0537 0.0827,-0.0537 0.36381,0 1.5875,0 1.68259,0 0.091,0 0.1695,-0.13229 0.1695,-0.18604 0,-0.26871 -0.11576,-0.50849 -0.29352,-0.67799 -0.19844,-0.19844 -0.51677,-0.32246 -0.82683,-0.32246 z m -0.0537,0.21497 c 0.21911,0 0.43408,0.25632 0.43408,0.47129 0,0.18604 -0.14883,0.26045 -0.26872,0.26045 -0.3886,0 -0.62425,0.008 -0.82682,0 -0.0289,0 -0.062,-0.0372 -0.0537,-0.0744 0.0909,-0.34727 0.39274,-0.65733 0.7152,-0.65733 z m 1.64538,0.24805 c 0,0.0455 0.0909,0.13642 0.27698,0.32246 0.0455,0.0372 0.0455,0.0992 0.0455,0.1695 0,0.67799 -0.0248,1.28157 -0.0372,1.48828 -0.0331,0.33073 -0.0537,0.43408 -0.32659,0.49609 -0.13643,0.0372 -0.19017,0.0827 -0.19017,0.12816 0,0.0703 0.10748,0.0992 0.21497,0.0992 0.16123,0 0.39274,-0.0289 0.64906,-0.0289 0.28938,0 0.72347,0.0165 0.75241,0.0165 0.10748,0 0.21084,-0.0538 0.21084,-0.10336 0,-0.0579 -0.0414,-0.0909 -0.18604,-0.13642 -0.20671,-0.0703 -0.26872,-0.1695 -0.26872,-0.33073 0,-0.58704 0,-1.28984 0.008,-1.79007 0,-0.062 0.0289,-0.1447 0.0662,-0.17777 0.10748,-0.0827 0.29352,-0.16123 0.47129,-0.16123 0.22324,0 0.40101,0.10749 0.50022,0.24805 0.0414,0.0455 0.10336,0.17776 0.0951,0.48369 l -0.008,1.32705 c 0,0.27698 -0.0703,0.35553 -0.27699,0.41754 -0.10335,0.0289 -0.15709,0.0827 -0.15709,0.10749 0,0.062 0.0331,0.11576 0.22324,0.11576 0.16536,0 0.47129,-0.0165 0.63252,-0.0165 0.17777,0 0.52503,0.0248 0.69453,0.0248 0.12402,0 0.20257,-0.0537 0.20257,-0.11163 0,-0.0537 -0.0786,-0.0909 -0.16123,-0.11162 -0.27285,-0.0786 -0.30179,-0.14883 -0.32659,-0.39687 -0.0124,-0.1695 -0.008,-1.5875 -0.008,-1.64125 0,-0.0785 0.0248,-0.2067 0.062,-0.23977 0.0786,-0.062 0.20257,-0.15297 0.47129,-0.15297 0.23978,0 0.40101,0.11576 0.49196,0.26045 0.0951,0.14883 0.11162,0.29353 0.11162,0.41755 0,0.25631 0.0124,1.11208 0.004,1.31051 -0.0124,0.30179 -0.0455,0.37207 -0.24391,0.43408 -0.0868,0.0289 -0.1571,0.0661 -0.1571,0.11576 0,0.0537 0.0496,0.11576 0.19431,0.11576 0.17776,0 0.37207,-0.0248 0.63252,-0.0248 0.2067,0 0.46302,0.0289 0.61598,0.0289 0.14056,0 0.21497,-0.0455 0.21497,-0.0992 0,-0.0455 -0.0537,-0.0909 -0.15296,-0.12402 -0.19844,-0.062 -0.26045,-0.17777 -0.26872,-0.30593 -0.008,-0.49609 -0.0248,-1.29811 -0.0372,-1.55029 -0.0165,-0.29352 -0.0868,-0.57051 -0.29352,-0.77308 -0.1571,-0.16123 -0.34727,-0.27699 -0.6656,-0.27699 -0.12815,0 -0.26871,0.0248 -0.44648,0.11576 -0.15296,0.0786 -0.47129,0.27285 -0.56224,0.33073 -0.008,0 -0.0455,0 -0.062,-0.0207 -0.0372,-0.062 -0.12403,-0.21084 -0.25632,-0.31006 -0.11989,-0.0909 -0.32246,-0.15296 -0.56224,-0.15296 -0.3762,0 -0.74,0.19844 -1.03766,0.44648 -0.0248,0.0248 -0.0579,-0.0289 -0.0579,-0.0455 0,-0.0786 0.0248,-0.22325 0.0248,-0.33073 0,-0.0165 -0.0289,-0.0785 -0.0703,-0.10336 -0.0124,-0.004 -0.0289,-0.0124 -0.0662,0 -0.18603,0.10336 -0.64079,0.29353 -0.83509,0.35554 -0.0537,0.0165 -0.14469,0.0951 -0.14469,0.14056 z m 7.54682,2.28203 c -0.14469,0 -0.30592,-0.0537 -0.42995,-0.14883 -0.0785,-0.0661 -0.14469,-0.1819 -0.14469,-0.33073 0,-0.35553 0.0207,-1.50895 0.004,-2.09599 0,-0.0289 -0.0289,-0.11576 -0.0579,-0.11576 -0.0331,0 -0.85163,0.0868 -1.0666,0.0868 -0.0785,0 -0.12403,0.0455 -0.12403,0.0827 0,0.0703 0.0703,0.13229 0.14056,0.16123 0.13229,0.0537 0.25218,0.0992 0.26045,0.3266 0.0165,0.40514 0.0248,1.15341 0.0248,1.70325 0,0.0992 0.0289,0.33073 0.0827,0.40928 0.1695,0.25218 0.42581,0.40514 0.78961,0.40514 0.22325,0 0.35967,-0.0537 0.49196,-0.11575 0.0992,-0.0372 0.34727,-0.19844 0.54157,-0.339 0.0124,-0.0124 0.0455,0.0165 0.0455,0.0537 -0.008,0.13229 -0.0165,0.27285 -0.0165,0.31833 0,0.0537 0.0538,0.10749 0.0868,0.10749 0.0207,0 0.26872,-0.062 0.39687,-0.0992 0.17777,-0.0455 0.57878,-0.14883 0.78962,-0.16123 0.0372,0 0.0992,-0.0703 0.0909,-0.0868 -0.008,-0.0248 -0.062,-0.19844 -0.0909,-0.19844 -0.10335,0 -0.27285,0.0455 -0.34727,0.0538 -0.0868,0 -0.0992,-0.11576 -0.0992,-0.14056 0,-0.24805 0.0207,-2.20349 0.0372,-2.48047 0,-0.0331 -0.0248,-0.12403 -0.0786,-0.12403 -0.0537,0 -0.10748,0.0124 -0.18603,0.0289 -0.22324,0.0455 -0.70693,0.0992 -1.01699,0.0992 -0.062,0 -0.12816,0.0496 -0.12816,0.0786 0,0.062 0.0662,0.12402 0.11989,0.14056 0.10335,0.0372 0.18603,0.0744 0.31006,0.11575 0.0868,0.0372 0.13229,0.11989 0.13229,0.17364 l -0.008,1.72806 c 0,0.0331 -0.0455,0.15709 -0.0786,0.17776 -0.1695,0.14056 -0.35553,0.18604 -0.47129,0.18604 z m 3.3476,-2.63757 c -0.0289,0 -0.0661,-0.0455 -0.0661,-0.0703 0,-0.22324 0,-0.35553 0,-0.38447 0,-0.0537 -0.10336,-0.13229 -0.1571,-0.13229 -0.0289,0 -0.0827,0.062 -0.17777,0.1695 -0.1695,0.17777 -0.42168,0.3638 -0.80615,0.62012 -0.0331,0.0207 -0.0413,0.0372 -0.0413,0.0661 0,0.0496 0.0331,0.10749 0.0951,0.13229 0.16123,0.062 0.28939,0.11576 0.28939,0.1695 0,0.26872 -0.0289,1.38906 -0.0289,1.67432 0,0.30179 0.0372,0.41341 0.14056,0.5457 0.11989,0.17777 0.40515,0.33073 0.71521,0.33073 0.3638,0 0.66972,-0.14469 0.88056,-0.35967 0.0455,-0.0537 0.11989,-0.15709 0.11989,-0.22324 0,-0.0868 -0.0289,-0.12402 -0.0537,-0.12402 -0.0289,0 -0.0661,0.0165 -0.12816,0.0537 -0.10335,0.0537 -0.26458,0.10749 -0.339,0.10749 -0.12402,0 -0.29352,-0.0538 -0.38034,-0.13229 -0.0827,-0.0744 -0.12402,-0.1695 -0.12402,-0.35967 0,-0.45475 0.008,-1.17409 0.008,-1.55856 0,-0.0165 0.0331,-0.0537 0.0786,-0.0537 0.062,0 0.7028,0 0.73174,0 0.0537,0 0.20257,-0.0165 0.20257,-0.0951 0,-0.0909 -0.0248,-0.339 -0.0248,-0.31419 0,-0.0537 -0.0827,-0.0868 -0.11575,-0.0868 -0.0289,0 -0.64906,0.0248 -0.81856,0.0248 z m 2.88355,-0.10748 c -0.20671,0 -0.43822,0.0537 -0.62839,0.14469 -0.64079,0.29352 -0.97978,0.90951 -0.97978,1.52962 0,0.87644 0.53743,1.5503 1.42627,1.5503 0.63252,0 0.99218,-0.30179 1.23196,-0.67386 0.0372,-0.062 0.062,-0.1447 0.062,-0.19017 0,-0.0496 -0.0372,-0.10336 -0.0703,-0.10336 -0.0289,0 -0.0703,0.0496 -0.0992,0.0951 -0.14469,0.19017 -0.37207,0.26872 -0.69453,0.26872 -0.33899,0 -0.66145,-0.14056 -0.85576,-0.38448 -0.14469,-0.1943 -0.23978,-0.54983 -0.23978,-0.71933 0,-0.0909 0.008,-0.21498 0.0331,-0.27699 0.008,-0.0289 0.0455,-0.0537 0.0827,-0.0537 0.3638,0 1.5875,0 1.68258,0 0.091,0 0.1695,-0.13229 0.1695,-0.18604 0,-0.26871 -0.11575,-0.50849 -0.29352,-0.67799 -0.19844,-0.19844 -0.51676,-0.32246 -0.82682,-0.32246 z m -0.0537,0.21497 c 0.21911,0 0.43409,0.25632 0.43409,0.47129 0,0.18604 -0.14883,0.26045 -0.26872,0.26045 -0.38861,0 -0.62425,0.008 -0.82682,0 -0.0289,0 -0.062,-0.0372 -0.0538,-0.0744 0.091,-0.34727 0.39274,-0.65733 0.7152,-0.65733 z m 0,0 M 43.416473,64.721627 c 0,-0.0434 -0.03101,-0.0755 -0.09095,-0.0951 -0.05788,-0.0217 -0.135393,-0.0331 -0.231511,-0.0331 -0.03617,0 -0.07648,0.003 -0.119889,0.008 -0.04444,0.003 -0.08888,0.007 -0.132292,0.0124 -0.02791,0.008 -0.05581,0.0145 -0.08268,0.0165 -0.02791,0.003 -0.05581,0.008 -0.08268,0.0165 -0.05581,0.0145 -0.110588,0.0331 -0.165365,0.0579 -0.05581,0.0248 -0.111621,0.0579 -0.169499,0.0992 -0.115755,0.0775 -0.233577,0.18087 -0.351399,0.31006 -0.118856,0.12712 -0.219108,0.27492 -0.301791,0.44235 -0.03101,0.0558 -0.06615,0.0992 -0.107487,0.13229 -0.04134,0.031 -0.08268,0.0527 -0.124023,0.0661 -0.02274,0 -0.04031,0.002 -0.05374,0.004 -0.01447,0.003 -0.02791,0.004 -0.04134,0.004 -0.06925,0 -0.127124,-0.0176 -0.173633,-0.0537 -0.04961,-0.0382 -0.07441,-0.093 -0.07441,-0.16536 0,-0.005 0,-0.0103 0,-0.0165 0,-0.008 0,-0.0165 0,-0.0248 0,0 0.0021,-0.002 0.0041,-0.008 0.0031,-0.008 0.0041,-0.0145 0.0041,-0.0207 l 0.396875,-1.49655 c 0,-0.0631 0.02687,-0.11576 0.08268,-0.1571 0.05788,-0.0413 0.120923,-0.062 0.190169,-0.062 0.05478,0 0.103353,0.0114 0.144694,0.0331 0.04134,0.0196 0.06821,0.0568 0.08268,0.11162 0.0083,0.0145 0.01344,0.0269 0.01654,0.0372 0.0021,0.0114 0.0041,0.0238 0.0041,0.0372 0.04134,0.0909 0.08268,0.14366 0.124024,0.1571 0.04341,0.0145 0.103352,0.0207 0.177766,0.0207 l 4.10931,-0.008 c 0.02687,0.006 0.05478,0.008 0.08268,0.008 0.02687,0 0.05891,-0.002 0.09508,-0.008 0.06305,-0.008 0.124023,-0.0289 0.181901,-0.062 0.05994,-0.0351 0.104386,-0.0961 0.132292,-0.1819 0.0186,-0.0548 0.05168,-0.0961 0.09922,-0.12403 0.04961,-0.0269 0.09922,-0.0413 0.148828,-0.0413 0.06305,0 0.117823,0.0196 0.165365,0.0579 0.04961,0.0393 0.07441,0.10335 0.07441,0.1943 l -0.157096,1.55443 c 0,0.0227 -0.0021,0.0403 -0.0041,0.0537 -0.0031,0.0145 -0.0083,0.0279 -0.01654,0.0413 -0.0279,0.0362 -0.06511,0.0723 -0.111621,0.10748 -0.04444,0.0331 -0.09405,0.0496 -0.148828,0.0496 -0.01447,0 -0.02791,-0.001 -0.04134,-0.004 -0.01447,-0.005 -0.02791,-0.008 -0.04134,-0.008 -0.04134,-0.0186 -0.08165,-0.0517 -0.119889,-0.0992 -0.03928,-0.0496 -0.06821,-0.11989 -0.08682,-0.21084 -0.08578,-0.28628 -0.190169,-0.48472 -0.314193,-0.59531 -0.124023,-0.11265 -0.26665,-0.19017 -0.425813,-0.23151 -0.08578,-0.0269 -0.161231,-0.0465 -0.227377,-0.0579 -0.06615,-0.0103 -0.12299,-0.0165 -0.169498,-0.0165 -0.118856,0 -0.204639,0.0238 -0.256315,0.0703 -0.05271,0.0444 -0.08268,0.0909 -0.09095,0.14056 0,0.006 0,0.0114 0,0.0165 0,0.003 0,0.007 0,0.0124 v 4.76663 c 0,0.23151 0.04651,0.38654 0.14056,0.46302 0.09612,0.0744 0.199471,0.12609 0.310058,0.15296 0.0217,0 0.04134,0.003 0.05788,0.008 0.01653,0.003 0.03514,0.007 0.05788,0.0124 0.08785,0.0145 0.165364,0.0372 0.23151,0.0703 0.06615,0.031 0.09922,0.0982 0.09922,0.20258 0,0.10542 -0.04031,0.17363 -0.119889,0.2067 -0.08062,0.0351 -0.189136,0.0537 -0.326596,0.0537 -0.09095,0 -0.189135,-0.006 -0.293522,-0.0165 -0.10542,-0.008 -0.212907,-0.0196 -0.32246,-0.0331 -0.02791,-0.008 -0.05788,-0.0145 -0.09095,-0.0165 -0.03101,-0.003 -0.05995,-0.004 -0.08682,-0.004 -0.08268,-0.008 -0.164331,-0.0165 -0.243912,-0.0248 -0.08062,-0.006 -0.159164,-0.008 -0.235645,-0.008 -0.04754,0 -0.09405,0 -0.14056,0 -0.04444,0 -0.09095,0 -0.14056,0 -0.124023,0 -0.243912,0.002 -0.359668,0.008 -0.113688,0.008 -0.222208,0.0186 -0.326595,0.0331 -0.10542,0.008 -0.202571,0.0165 -0.293522,0.0248 -0.09095,0.0103 -0.173633,0.0165 -0.248047,0.0165 -0.113688,0 -0.204638,-0.0165 -0.272851,-0.0496 -0.06925,-0.031 -0.103353,-0.093 -0.103353,-0.19017 0,-0.10439 0.03411,-0.1757 0.103353,-0.21497 0.06821,-0.0383 0.152962,-0.0672 0.252181,-0.0868 0.01344,0 0.02894,-0.002 0.04547,-0.008 0.01654,-0.008 0.03514,-0.0124 0.05788,-0.0124 0.109554,-0.0351 0.211873,-0.0889 0.305924,-0.16123 0.09302,-0.0744 0.14056,-0.21188 0.14056,-0.41341 z m 10.000423,2.96829 c 0,-0.11782 -0.0248,-0.1881 -0.07441,-0.21084 -0.04754,-0.0217 -0.213941,-0.0331 -0.500228,-0.0331 l -1.72806,-0.008 c -0.118856,0.006 -0.189136,0.0238 -0.21084,0.0538 -0.01964,0.0279 -0.02894,0.12195 -0.02894,0.28112 v 1.88929 c 0,0.22324 0.05064,0.36173 0.152962,0.41341 0.104386,0.0527 0.216007,0.0858 0.334863,0.0992 0.0083,0 0.01447,0 0.02067,0 0.0083,0 0.0124,0 0.0124,0 0.109554,0.0145 0.207739,0.0372 0.293522,0.0703 0.08785,0.031 0.142627,0.11162 0.165365,0.24391 0,0.10542 -0.03927,0.17363 -0.115755,0.20671 -0.07751,0.0351 -0.185002,0.0537 -0.322461,0.0537 -0.09095,0 -0.194303,-0.006 -0.310059,-0.0165 -0.113688,-0.008 -0.233577,-0.0196 -0.359668,-0.0331 -0.130224,-0.0145 -0.267684,-0.0269 -0.413411,-0.0372 -0.146761,-0.0114 -0.296623,-0.0165 -0.450619,-0.0165 -0.06925,0 -0.14366,10e-4 -0.223242,0.004 -0.08061,0.005 -0.159163,0.0103 -0.235644,0.0165 -0.01964,0 -0.03928,0.001 -0.05788,0.004 -0.01654,0.005 -0.03617,0.008 -0.05788,0.008 -0.09715,0.005 -0.192236,0.0103 -0.285253,0.0165 -0.09405,0.008 -0.181901,0.0124 -0.264584,0.0124 -0.173633,0 -0.317293,-0.0196 -0.429948,-0.0579 -0.110587,-0.0382 -0.165364,-0.11989 -0.165364,-0.24391 0,-0.10439 0.03514,-0.1695 0.107487,-0.19431 0.07441,-0.0248 0.163297,-0.0393 0.268717,-0.0455 0.0186,0 0.03721,-0.001 0.05374,-0.004 0.0186,-0.005 0.03927,-0.008 0.06201,-0.008 0.124024,-0.0186 0.235645,-0.062 0.334864,-0.12816 0.101285,-0.0661 0.152962,-0.21084 0.152962,-0.43408 v -4.46485 c 0,-0.17363 -0.05168,-0.29042 -0.152962,-0.3514 -0.09922,-0.063 -0.21084,-0.10955 -0.334864,-0.14056 -0.01653,0 -0.03204,-10e-4 -0.04548,-0.004 -0.01447,-0.002 -0.0279,-0.004 -0.04134,-0.004 -0.110588,-0.0217 -0.205672,-0.0496 -0.285254,-0.0827 -0.08061,-0.0351 -0.119889,-0.10852 -0.119889,-0.2191 0,-0.0992 0.03411,-0.1633 0.103353,-0.19431 0.06821,-0.0331 0.169498,-0.0496 0.30179,-0.0496 0.08475,0 0.1788,0.004 0.28112,0.0124 0.104386,0.006 0.223242,0.0124 0.355534,0.0207 0.132291,0.0145 0.273885,0.0248 0.425813,0.0331 0.153996,0.006 0.322461,0.008 0.504362,0.008 0.132292,0 0.258382,-0.002 0.380339,-0.008 0.120923,-0.008 0.233577,-0.0145 0.338997,-0.0207 0.104387,-0.008 0.200505,-0.0145 0.289388,-0.0207 0.09095,-0.008 0.170533,-0.0124 0.239779,-0.0124 0.153996,0 0.270784,0.0207 0.3514,0.062 0.07958,0.0413 0.119889,0.12609 0.119889,0.25218 0,0.0641 -0.03204,0.10955 -0.09508,0.13643 -0.06408,0.0279 -0.139526,0.0517 -0.227376,0.0703 -0.02791,0 -0.05684,0.004 -0.08682,0.0124 -0.02791,0.006 -0.05581,0.0124 -0.08268,0.0207 -0.124023,0.0279 -0.237711,0.0744 -0.338997,0.14056 -0.09922,0.0661 -0.148828,0.18397 -0.148828,0.3514 v 1.55443 c 0,0.13229 0.01343,0.2098 0.04134,0.23151 0.02687,0.0227 0.120923,0.0331 0.28112,0.0331 l 1.971972,-0.0124 c 0.124024,0.008 0.195337,0.002 0.214974,-0.0207 0.0217,-0.0217 0.03307,-0.0951 0.03307,-0.21911 v -1.57923 c 0,-0.15917 -0.04754,-0.26872 -0.14056,-0.3266 -0.09405,-0.0599 -0.19637,-0.10438 -0.305924,-0.13229 -0.01447,0 -0.02687,-0.001 -0.03721,-0.004 -0.01137,-0.005 -0.01964,-0.0103 -0.0248,-0.0165 -0.10542,-0.0217 -0.197404,-0.0537 -0.276986,-0.0951 -0.08062,-0.0414 -0.119889,-0.11679 -0.119889,-0.22738 0,-0.0848 0.06201,-0.14159 0.186035,-0.1695 0.124023,-0.0269 0.28112,-0.0413 0.471289,-0.0413 0.08268,0 0.171566,0.003 0.268718,0.008 0.09612,0.003 0.194303,0.007 0.293522,0.0124 0.0052,0 0.01344,0 0.0248,0 0.01034,0 0.02274,0 0.03721,0 0.104386,0.008 0.207739,0.0145 0.310058,0.0165 0.104387,0.003 0.202572,0.004 0.293522,0.004 0.132292,0 0.258382,-0.001 0.380339,-0.004 0.120923,-0.002 0.237711,-0.008 0.351399,-0.0165 0.109554,-0.005 0.211874,-0.009 0.305925,-0.0124 0.09302,-0.005 0.181901,-0.008 0.264583,-0.008 0.159164,0 0.285254,0.0145 0.376205,0.0413 0.09095,0.0279 0.136426,0.0847 0.136426,0.1695 0,0.10232 -0.03721,0.1757 -0.111621,0.21911 -0.07235,0.0413 -0.160198,0.0765 -0.264584,0.10335 -0.01963,0.006 -0.03927,0.0124 -0.05788,0.0207 -0.01653,0.008 -0.03617,0.0155 -0.05788,0.0207 -0.124024,0.0413 -0.238745,0.10232 -0.343132,0.1819 -0.10542,0.0806 -0.157096,0.22531 -0.157096,0.43408 v 4.35736 c 0,0.20981 0.05168,0.34727 0.157096,0.41341 0.104387,0.0661 0.219108,0.11059 0.343132,0.13229 0.01344,0 0.02894,0.002 0.04547,0.004 0.0186,0.003 0.03927,0.004 0.06201,0.004 0.104386,0.0145 0.194303,0.0372 0.268717,0.0703 0.07648,0.031 0.115756,0.0982 0.115756,0.20257 0,0.0909 -0.05374,0.15193 -0.161231,0.1819 -0.107487,0.0331 -0.241846,0.0496 -0.401009,0.0496 -0.09922,0 -0.206706,-0.004 -0.322461,-0.0124 -0.113688,-0.006 -0.225309,-0.0124 -0.334863,-0.0207 -0.118857,-0.0145 -0.235645,-0.0248 -0.3514,-0.0331 -0.113689,-0.006 -0.218075,-0.008 -0.314193,-0.008 -0.132292,0 -0.264583,0.002 -0.396875,0.008 -0.132292,0.008 -0.258382,0.0186 -0.376204,0.0331 -0.118856,0.008 -0.231511,0.0145 -0.338998,0.0207 -0.107487,0.008 -0.206705,0.0124 -0.297656,0.0124 -0.151929,0 -0.271818,-0.0165 -0.359668,-0.0496 -0.08888,-0.03 -0.132292,-0.0909 -0.132292,-0.1819 0,-0.10955 0.04134,-0.18294 0.124024,-0.21911 0.08475,-0.0351 0.179834,-0.063 0.285254,-0.0827 0.01344,0 0.02687,-10e-4 0.04134,-0.004 0.01344,-0.005 0.03101,-0.008 0.05374,-0.008 0.115755,-0.0269 0.225309,-0.0713 0.330729,-0.1323 0.104387,-0.063 0.157097,-0.18603 0.157097,-0.36793 z m 8.039823,-0.50436 c 0.32452,0.0558 0.59221,0.23151 0.80201,0.52917 0.20878,0.29559 0.39378,0.61391 0.55398,0.95498 0.0413,0.0775 0.0785,0.15503 0.11162,0.23151 0.0351,0.0775 0.0713,0.15296 0.10748,0.22738 0.06,0.13229 0.12403,0.26044 0.19017,0.38447 0.0661,0.12195 0.13436,0.22737 0.20671,0.31833 0.0269,0.0331 0.0517,0.062 0.0744,0.0868 0.0248,0.0248 0.0506,0.0486 0.0785,0.0703 0.0713,0.0475 0.13746,0.0827 0.19844,0.10749 0.063,0.0248 0.12195,0.0486 0.17777,0.0703 0.063,0.0196 0.11368,0.0455 0.15296,0.0786 0.0382,0.031 0.0579,0.0847 0.0579,0.16123 0,0.0909 -0.031,0.15503 -0.0909,0.19017 -0.0579,0.0331 -0.13642,0.0496 -0.23564,0.0496 -0.061,0 -0.12402,-0.002 -0.19017,-0.008 -0.0661,-0.008 -0.13436,-0.0186 -0.20257,-0.0331 -0.0227,0 -0.0444,-0.001 -0.0661,-0.004 -0.0196,-0.005 -0.0403,-0.008 -0.062,-0.008 -0.0475,-0.005 -0.0971,-0.009 -0.14883,-0.0124 -0.0527,-0.005 -0.10335,-0.008 -0.15296,-0.008 -0.0641,0 -0.12816,0.004 -0.1943,0.0124 -0.0641,0.006 -0.13126,0.0124 -0.20257,0.0207 -0.0145,0 -0.0269,0 -0.0372,0 -0.008,0 -0.0196,0 -0.0331,0 -0.0775,0.0145 -0.15503,0.0248 -0.23151,0.0331 -0.0775,0.006 -0.14677,0.008 -0.20671,0.008 -0.0641,0 -0.11576,-0.005 -0.1571,-0.0165 -0.0413,-0.0103 -0.0692,-0.03 -0.0827,-0.0579 l -1.48001,-2.8112 c -0.0362,-0.0765 -0.0786,-0.13746 -0.12816,-0.1819 -0.0475,-0.0434 -0.0982,-0.0723 -0.15296,-0.0868 -0.0165,0 -0.0331,-0.001 -0.0496,-0.004 -0.0165,-0.005 -0.032,-0.008 -0.0455,-0.008 -0.0496,0 -0.0951,0.0145 -0.13642,0.0414 -0.0413,0.0279 -0.062,0.0599 -0.062,0.0951 v 2.04639 c 0,0.17673 0.0496,0.29249 0.14882,0.34726 0.10129,0.0558 0.21498,0.0971 0.339,0.12403 0.0217,0.008 0.0413,0.0124 0.0579,0.0124 0.0186,0 0.0351,0.003 0.0496,0.008 0.10128,0.0227 0.1912,0.0475 0.26872,0.0744 0.0765,0.0279 0.11575,0.0868 0.11575,0.17777 0,0.10542 -0.0475,0.1757 -0.14056,0.21084 -0.094,0.0331 -0.21394,0.0496 -0.35967,0.0496 -0.10542,0 -0.22117,-0.004 -0.34726,-0.0124 -0.12403,-0.006 -0.24805,-0.0145 -0.37207,-0.0289 0,0 -0.004,0 -0.0124,0 -0.006,0 -0.008,0 -0.008,0 -0.11368,-0.0134 -0.2253,-0.0258 -0.33486,-0.0372 -0.11059,-0.0103 -0.21497,-0.0165 -0.31419,-0.0165 -0.0692,0 -0.15606,0.006 -0.26045,0.0165 -0.10232,0.0114 -0.209807,0.0238 -0.322461,0.0372 -0.04134,0.006 -0.08165,0.0114 -0.11989,0.0165 -0.03927,0.003 -0.07855,0.004 -0.119889,0.004 -0.07441,0.008 -0.15296,0.0134 -0.235642,0.0165 -0.08061,0.002 -0.155029,0.004 -0.223242,0.004 -0.151929,0 -0.276986,-0.0145 -0.376205,-0.0413 -0.09715,-0.0269 -0.144694,-0.0868 -0.144694,-0.17777 0,-0.008 0,-0.0145 0,-0.0207 0,-0.008 0,-0.0145 0,-0.0207 0.0217,-0.10439 0.06821,-0.17157 0.14056,-0.20257 0.07441,-0.0331 0.155029,-0.0558 0.243913,-0.0703 0.01654,0 0.02687,-0.001 0.03307,-0.004 0.0083,-0.002 0.0186,-0.004 0.03307,-0.004 0.109554,-0.0217 0.211873,-0.062 0.305924,-0.11989 0.09302,-0.06 0.14056,-0.19844 0.14056,-0.41341 v -4.62194 c 0,-0.1509 -0.04754,-0.25322 -0.14056,-0.30593 -0.09405,-0.0517 -0.19637,-0.0889 -0.305924,-0.11162 -0.01447,0 -0.02894,-0.001 -0.04548,-0.004 -0.01447,-0.002 -0.0279,-0.004 -0.04134,-0.004 -0.09715,-0.0217 -0.181901,-0.0465 -0.256315,-0.0744 -0.07235,-0.0269 -0.107487,-0.0827 -0.107487,-0.16536 0,-0.008 0,-0.0145 0,-0.0207 0,-0.008 0,-0.0165 0,-0.0248 0,-0.005 0,-0.009 0,-0.0124 0,-0.005 0,-0.008 0,-0.008 0,-0.0827 0.05168,-0.13746 0.157097,-0.16536 0.104386,-0.0269 0.253214,-0.0413 0.446484,-0.0413 0.09922,0 0.207739,0.002 0.326595,0.004 0.117822,0.003 0.241846,0.008 0.37207,0.0165 0.140556,0.006 0.285256,0.0114 0.434086,0.0165 0.14882,0.003 0.30695,0.004 0.47542,0.004 0.13229,0 0.26458,-0.001 0.39687,-0.004 0.1323,-0.005 0.26459,-0.0103 0.39688,-0.0165 0.12919,0 0.25838,-0.001 0.38861,-0.004 0.12919,-0.005 0.25631,-0.008 0.38033,-0.008 0.63872,0 1.18339,0.0951 1.63298,0.28525 0.44855,0.1881 0.67386,0.65319 0.67386,1.39733 0,0.44648 -0.17673,0.79375 -0.52917,1.0418 -0.35036,0.24804 -0.75137,0.39274 -1.20302,0.43408 z m -1.63711,-0.40514 c 0,0.0909 0.03,0.15709 0.091,0.19844 0.063,0.0413 0.14469,0.062 0.24391,0.062 0.0548,0 0.11265,-0.005 0.17363,-0.0165 0.0631,-0.0103 0.12919,-0.03 0.19844,-0.0579 0.0269,-0.0134 0.0589,-0.0269 0.0951,-0.0413 0.0351,-0.0134 0.0672,-0.031 0.0951,-0.0537 0.18707,-0.0879 0.34106,-0.23565 0.46302,-0.44235 0.12092,-0.20671 0.18604,-0.42168 0.1943,-0.64492 0,-0.0134 0,-0.0227 0,-0.0289 0,-0.008 0,-0.0145 0,-0.0207 0,-0.0765 -0.006,-0.14986 -0.0165,-0.21911 -0.0114,-0.0713 -0.0351,-0.14159 -0.0703,-0.21084 -0.0827,-0.15916 -0.17673,-0.29352 -0.28112,-0.40101 -0.10232,-0.10749 -0.20981,-0.19017 -0.32246,-0.24805 -0.0692,-0.0413 -0.14056,-0.0703 -0.21498,-0.0868 -0.0723,-0.0165 -0.13952,-0.0248 -0.20257,-0.0248 -0.12402,0 -0.23047,0.032 -0.31832,0.0951 -0.0858,0.061 -0.12816,0.14779 -0.12816,0.26045 z m 5.89008,2.79879 v -4.45244 c 0,-0.15916 -0.0476,-0.27285 -0.14056,-0.33899 -0.0941,-0.0661 -0.19637,-0.11679 -0.30593,-0.15297 -0.0227,-0.005 -0.0413,-0.009 -0.0579,-0.0124 -0.0165,-0.005 -0.032,-0.0103 -0.0455,-0.0165 -0.091,-0.0269 -0.1726,-0.0599 -0.24391,-0.0992 -0.0693,-0.0382 -0.10336,-0.0992 -0.10336,-0.1819 0,-0.0992 0.0351,-0.1633 0.10749,-0.1943 0.0744,-0.0331 0.17777,-0.0496 0.31006,-0.0496 0.0827,0 0.17156,0.004 0.26872,0.0124 0.0992,0.006 0.20774,0.0124 0.32659,0.0207 0.11782,0.0145 0.24391,0.0248 0.37621,0.0331 0.13229,0.006 0.27078,0.008 0.41754,0.008 0.1509,0 0.29456,-0.001 0.42995,-0.004 0.13746,-0.002 0.26458,-0.008 0.38034,-0.0165 0.11782,-0.005 0.22531,-0.009 0.32246,-0.0124 0.0992,-0.005 0.18707,-0.008 0.26458,-0.008 0.15916,0 0.28112,0.0145 0.3638,0.0413 0.0827,0.0279 0.12403,0.0847 0.12403,0.16949 0,0.11059 -0.0444,0.18604 -0.13229,0.22738 -0.0858,0.0413 -0.18397,0.0734 -0.29353,0.0951 -0.008,0.006 -0.0186,0.0114 -0.0289,0.0165 -0.008,0.003 -0.0196,0.004 -0.0331,0.004 -0.12712,0.0279 -0.24184,0.0723 -0.34313,0.13229 -0.0992,0.0579 -0.14883,0.17156 -0.14883,0.33899 v 4.44004 c 0,0.20154 0.0496,0.339 0.14883,0.41341 0.10129,0.0744 0.21601,0.12816 0.34313,0.16124 0.0269,0.008 0.0517,0.0145 0.0744,0.0165 0.0248,0.003 0.0475,0.008 0.0703,0.0165 0.0909,0.0196 0.17053,0.0455 0.23977,0.0786 0.0682,0.031 0.10336,0.0868 0.10336,0.1695 0,0.008 0,0.0165 0,0.0248 0,0.006 0,0.0155 0,0.0289 -0.0196,0.0827 -0.0858,0.13642 -0.19844,0.16123 -0.11059,0.0248 -0.25218,0.0372 -0.42581,0.0372 -0.091,0 -0.18604,-0.002 -0.28526,-0.004 -0.0971,-0.003 -0.2005,-0.008 -0.31006,-0.0165 -0.10542,-0.006 -0.2129,-0.0114 -0.32246,-0.0165 -0.11058,-0.003 -0.22531,-0.004 -0.34313,-0.004 -0.11369,0 -0.22221,0.001 -0.32659,0.004 -0.10232,0.005 -0.20258,0.0103 -0.30179,0.0165 -0.0972,0 -0.19017,10e-4 -0.28112,0.004 -0.0909,0.005 -0.17364,0.008 -0.24805,0.008 -0.19637,0 -0.35347,-0.0186 -0.47129,-0.0537 -0.11886,-0.0351 -0.17777,-0.10853 -0.17777,-0.21911 0,-0.0827 0.0331,-0.1385 0.0992,-0.1695 0.0661,-0.0331 0.1416,-0.0599 0.22738,-0.0827 0.0186,-0.005 0.0382,-0.009 0.0579,-0.0124 0.0217,-0.005 0.0434,-0.0103 0.0661,-0.0165 0.10956,-0.03 0.21187,-0.0796 0.30593,-0.14883 0.093,-0.0682 0.14056,-0.19637 0.14056,-0.38447 z m 7.46517,-1.15755 1.39733,-3.53467 c 0.0579,-0.13229 0.0537,-0.2129 -0.0124,-0.24391 -0.0661,-0.0331 -0.15193,-0.0496 -0.25632,-0.0496 -0.0145,0 -0.0269,0 -0.0372,0 -0.0114,0 -0.0238,0 -0.0372,0 -0.006,0 -0.0114,0 -0.0165,0 -0.003,0 -0.004,0 -0.004,0 -0.0971,-0.005 -0.18397,-0.0145 -0.26045,-0.0289 -0.0775,-0.0134 -0.11575,-0.0661 -0.11575,-0.15709 0,-0.008 0,-0.0134 0,-0.0165 0,-0.002 0,-0.008 0,-0.0165 -0.006,-0.005 -0.008,-0.009 -0.008,-0.0124 0,-0.005 0,-0.0103 0,-0.0165 0,-0.0992 0.0341,-0.16536 0.10335,-0.19843 0.0682,-0.0351 0.15296,-0.0538 0.25218,-0.0538 0.0465,0 0.0961,0.002 0.14883,0.004 0.0517,0.003 0.10335,0.008 0.15296,0.0165 0.0134,0 0.0248,0.003 0.0331,0.008 0.0103,0.003 0.0207,0.004 0.0289,0.004 0.0631,0.006 0.12506,0.0124 0.18604,0.0207 0.063,0.006 0.11989,0.008 0.1695,0.008 0.0548,0 0.11679,-0.002 0.18603,-0.008 0.0682,-0.008 0.1416,-0.0186 0.21911,-0.0331 0.0134,0 0.0258,0 0.0372,0 0.0103,0 0.0227,0 0.0372,0 0.06,-0.008 0.11989,-0.0145 0.17777,-0.0207 0.06,-0.008 0.11782,-0.0124 0.17363,-0.0124 0.11783,0 0.21291,0.0165 0.28526,0.0496 0.0744,0.031 0.11162,0.0951 0.11162,0.19431 0,0.11885 -0.0393,0.18913 -0.11576,0.21084 -0.0744,0.0196 -0.16123,0.0289 -0.26044,0.0289 -0.006,0 -0.0124,0 -0.0207,0 -0.006,0 -0.0124,0 -0.0207,0 -0.006,0 -0.0124,0 -0.0207,0 -0.006,0 -0.0124,0 -0.0207,0 -0.0909,0.006 -0.17777,0.0207 -0.26045,0.0455 -0.0827,0.0248 -0.14263,0.093 -0.17777,0.20257 l -2.46807,5.83325 c -0.0145,0.0413 -0.0496,0.0713 -0.10749,0.091 -0.0558,0.0217 -0.11368,0.0331 -0.17363,0.0331 -0.0641,0 -0.12402,-0.0114 -0.1819,-0.0331 -0.0558,-0.0196 -0.093,-0.0496 -0.11162,-0.091 l -2.4598,-5.75883 c -0.0413,-0.0909 -0.093,-0.15503 -0.15296,-0.1943 -0.0579,-0.0382 -0.11886,-0.0599 -0.1819,-0.0661 -0.0279,-0.008 -0.0538,-0.0124 -0.0786,-0.0124 -0.0248,0 -0.0517,0 -0.0785,0 -0.006,0 -0.0114,0 -0.0165,0 -0.003,0 -0.007,0 -0.0124,0 -0.0765,-0.005 -0.14469,-0.0207 -0.20257,-0.0455 -0.0599,-0.0248 -0.091,-0.10542 -0.091,-0.24392 0,-0.0992 0.0372,-0.16329 0.11162,-0.1943 0.0724,-0.0331 0.1695,-0.0496 0.29352,-0.0496 0.0847,0 0.17777,0.004 0.27699,0.0124 0.10129,0.006 0.21187,0.0124 0.33073,0.0207 0.11782,0.0145 0.24184,0.0248 0.37207,0.0331 0.13229,0.006 0.27078,0.008 0.41755,0.008 0.13229,0 0.26044,-0.002 0.38447,-0.008 0.12609,-0.008 0.24184,-0.0186 0.34726,-0.0331 0.10956,-0.008 0.21291,-0.0145 0.31006,-0.0207 0.0992,-0.008 0.18707,-0.0124 0.26459,-0.0124 0.12919,0 0.22944,0.0165 0.30179,0.0496 0.0744,0.031 0.11162,0.0951 0.11162,0.1943 0,0.13229 -0.0331,0.21704 -0.0992,0.25218 -0.0641,0.0331 -0.14056,0.0496 -0.23151,0.0496 -0.0227,0 -0.0413,0 -0.0579,0 -0.0165,0 -0.032,-0.004 -0.0455,-0.0124 -0.0227,0 -0.0434,0 -0.062,0 -0.0165,0 -0.0351,0 -0.0537,0 -0.0641,0 -0.11886,0.0103 -0.16536,0.0289 -0.0445,0.0165 -0.0662,0.0599 -0.0662,0.12815 0,0.0279 0.002,0.0599 0.008,0.0951 0.008,0.0362 0.0186,0.0744 0.0331,0.11575 z m 4.33875,-3.29489 c -0.0279,-0.16536 -0.0744,-0.27388 -0.14055,-0.32659 -0.0661,-0.0517 -0.15503,-0.0961 -0.26459,-0.13229 -0.0413,-0.0134 -0.0909,-0.0269 -0.14883,-0.0413 -0.0558,-0.0134 -0.11369,-0.0341 -0.17363,-0.062 -0.0579,-0.0217 -0.10645,-0.0465 -0.14469,-0.0744 -0.0362,-0.0269 -0.061,-0.0548 -0.0744,-0.0827 0,-0.008 -0.003,-0.0165 -0.008,-0.0248 -0.003,-0.0103 -0.004,-0.0207 -0.004,-0.0289 -0.006,-0.0548 0.0289,-0.10336 0.10335,-0.1447 0.0765,-0.0413 0.18811,-0.062 0.33487,-0.062 0.0351,0 0.0682,0 0.0992,0 0.03,0 0.063,0.003 0.0992,0.008 0.10438,0 0.21704,0.004 0.33899,0.0124 0.12093,0.006 0.25012,0.0155 0.38861,0.0289 0.13229,0.008 0.27389,0.0186 0.42581,0.0289 0.154,0.008 0.31523,0.0124 0.4837,0.0124 0.12402,0 0.30385,-0.004 0.54156,-0.0124 0.23668,-0.0103 0.4837,-0.0207 0.74001,-0.0289 0.0134,0 0.0227,0 0.0289,0 0.008,0 0.0186,0 0.0331,0 0.25012,-0.0134 0.49196,-0.0227 0.72347,-0.0289 0.23358,-0.008 0.41962,-0.0124 0.55811,-0.0124 0.0434,0 0.0868,-10e-4 0.12816,-0.004 0.0413,-0.002 0.0785,-0.004 0.11162,-0.004 0.0351,0 0.0724,-0.001 0.11162,-0.004 0.0382,-0.005 0.0713,-0.008 0.0992,-0.008 0.063,0 0.11265,0.007 0.14883,0.0207 0.0382,0.0145 0.0579,0.0413 0.0579,0.0827 v 1.3932 c 0,0.0475 -0.0196,0.0889 -0.0579,0.12402 -0.0362,0.0362 -0.0827,0.0538 -0.14056,0.0538 -0.0475,0 -0.0972,-0.0186 -0.14883,-0.0579 -0.0527,-0.0382 -0.0992,-0.10335 -0.14056,-0.19431 -0.1602,-0.36896 -0.37414,-0.59944 -0.64079,-0.69039 -0.26768,-0.091 -0.54777,-0.13643 -0.83922,-0.13643 -0.36381,0 -0.59118,0.0393 -0.68213,0.11576 -0.0889,0.0775 -0.1323,0.1757 -0.1323,0.29352 v 1.72393 c 0,0.0775 0.0393,0.12815 0.1199,0.15296 0.0796,0.0227 0.17466,0.0331 0.28525,0.0331 0.0217,0 0.0434,0 0.0661,0 0.0248,0 0.0476,0 0.0703,0 0.0134,0 0.0258,0 0.0372,0 0.0103,0 0.0227,-0.002 0.0372,-0.008 0.0331,0 0.0672,0 0.10335,0 0.0351,0 0.0672,0 0.0951,0 0.26148,0 0.44441,-0.0455 0.54983,-0.13642 0.10439,-0.0909 0.17777,-0.1881 0.21911,-0.29352 0.008,-0.0269 0.0165,-0.0538 0.0248,-0.0786 0.0103,-0.0248 0.0207,-0.0506 0.0289,-0.0786 0.0269,-0.10439 0.0641,-0.18397 0.11162,-0.23978 0.0496,-0.0548 0.0992,-0.093 0.14883,-0.11575 0.0134,-0.005 0.0269,-0.009 0.0413,-0.0124 0.0134,-0.005 0.0269,-0.008 0.0413,-0.008 0.063,0 0.11782,0.0269 0.16537,0.0785 0.0496,0.0527 0.0744,0.12196 0.0744,0.20671 0,0.0145 0,0.0289 0,0.0455 0,0.0165 -0.003,0.032 -0.008,0.0455 -0.008,0.0279 -0.0165,0.0579 -0.0248,0.091 -0.006,0.031 -0.008,0.0599 -0.008,0.0868 -0.0145,0.0909 -0.0248,0.1819 -0.0331,0.27285 -0.006,0.0909 -0.008,0.17777 -0.008,0.26045 0,0.11885 0.002,0.23048 0.008,0.33486 0.008,0.10542 0.0186,0.20257 0.0331,0.29352 0.008,0.091 0.0145,0.1695 0.0207,0.23565 0.008,0.0661 0.0124,0.11989 0.0124,0.16123 0,0.006 0,0.0114 0,0.0165 0,0.003 0.002,0.008 0.008,0.0165 0,0.006 0,0.0114 0,0.0165 0,0.003 0,0.004 0,0.004 0,0.0693 -0.0269,0.12299 -0.0785,0.16123 -0.0527,0.0393 -0.10956,0.0579 -0.1695,0.0579 -0.0724,0 -0.14056,-0.0207 -0.20671,-0.062 -0.0661,-0.0434 -0.10955,-0.11369 -0.12815,-0.21084 -0.0414,-0.28629 -0.15917,-0.48163 -0.3514,-0.58705 -0.19017,-0.10438 -0.42789,-0.15709 -0.71107,-0.15709 -0.16847,0 -0.30593,0.0186 -0.41341,0.0537 -0.10749,0.0362 -0.16124,0.0744 -0.16124,0.11576 v 1.88102 c 0,0.26458 0.093,0.45785 0.28113,0.57877 0.18706,0.12196 0.40927,0.18191 0.66559,0.18191 0.0579,0 0.11575,-0.002 0.17363,-0.008 0.0579,-0.008 0.11782,-0.0145 0.1819,-0.0207 0.26459,-0.0496 0.51367,-0.14986 0.74828,-0.30179 0.23667,-0.154 0.40101,-0.34934 0.49196,-0.58705 0.0413,-0.0909 0.0827,-0.16536 0.12402,-0.22324 0.0434,-0.0599 0.0889,-0.10439 0.13643,-0.13229 0.0351,-0.0269 0.0703,-0.0475 0.10335,-0.062 0.0351,-0.0134 0.0672,-0.0207 0.0951,-0.0207 0.0548,0 0.10129,0.0186 0.14056,0.0537 0.0382,0.0331 0.0579,0.0775 0.0579,0.13229 l -0.24805,1.3932 c -0.0145,0.0971 -0.0444,0.16123 -0.0909,0.1943 -0.0444,0.0351 -0.12299,0.0538 -0.23564,0.0538 -0.0692,0 -0.15606,-0.006 -0.26045,-0.0165 -0.10232,-0.008 -0.22634,-0.0165 -0.37207,-0.0248 -0.15503,-0.0145 -0.33073,-0.0248 -0.52917,-0.0331 -0.19844,-0.006 -0.42581,-0.008 -0.68213,-0.008 -0.10542,0 -0.21497,0 -0.33072,0 -0.11369,0 -0.23565,0 -0.36794,0 l -2.30272,0.0827 c -0.21497,0 -0.36793,-0.0238 -0.45889,-0.0703 -0.091,-0.0434 -0.13642,-0.0961 -0.13642,-0.1571 0,-0.0134 0.002,-0.0258 0.004,-0.0372 0.003,-0.0103 0.004,-0.0207 0.004,-0.0289 0.0217,-0.06 0.0713,-0.11576 0.14883,-0.16537 0.0765,-0.0496 0.16639,-0.0837 0.26871,-0.10335 0.25012,-0.0413 0.40928,-0.10025 0.47543,-0.17777 0.0661,-0.0765 0.0992,-0.23771 0.0992,-0.48369 z m 0,0" />
    </g>
  </g>
</svg></svg>